<svg xmlns="http://www.w3.org/2000/svg" width="224.632" height="47.655" viewBox="0 0 224.632 47.655">
  <g id="Group_67" data-name="Group 67" transform="translate(-34.067 -26.374)">
    <path id="Path_304" data-name="Path 304" d="M304.179,98.23c3.093,3.267,6.3,6.632,8.13,8.467,3.452,3.474,10.4,5.55,15.125,5.55h5.533v-7.473h-5.533c-3.07,0-7.971-1.48-10.1-3.605-1.744-1.746-4.951-5.115-8.033-8.378L306.847,95.4c-.775.825-1.688,1.8-2.668,2.833" transform="translate(-155.431 -38.219)" fill="#fff"/>
    <path id="Path_305" data-name="Path 305" d="M49.057,34.869H34.067v-7.7H72.418v7.7H57.429V74.434H49.057Z" transform="translate(0 -0.458)" fill="#fff"/>
    <path id="Path_306" data-name="Path 306" d="M479.744,55.206,471.573,36.3l-8.1,18.906ZM467.861,26.374h7.7l20.795,47.6h-8.776l-4.793-11.412H460.435l-4.863,11.412h-8.505Z" transform="translate(-237.653 0)" fill="#fff"/>
    <path id="Path_307" data-name="Path 307" d="M146.444,67.039V54.325h23.7V46.917h-23.7V34.671h28.818v0h2.491c3.07,0,7.971,1.48,10.1,3.605,2.44,2.438,7.765,8.076,11.984,12.573-4.22,4.5-9.544,10.135-11.984,12.575-2.125,2.125-7.026,3.605-10.1,3.605h-2.26Zm25.779-39.846H138.14V74.5h39.614c4.726,0,11.673-2.077,15.126-5.55,3-3.022,9.571-9.982,13.218-13.861l4-4.243L206,46.5c-3.625-3.856-10.147-10.772-13.118-13.759-3.452-3.474-10.4-5.548-15.126-5.548Z" transform="translate(-59.887 -0.471)" fill="#fff"/>
    <path id="Path_308" data-name="Path 308" d="M327.436,27.193c-4.723,0-11.673,2.074-15.125,5.548-1.828,1.838-5.036,5.2-8.128,8.471.886.94,1.753,1.861,2.571,2.731L309.3,46.65c3.081-3.264,6.29-6.632,8.034-8.378,2.125-2.122,7.026-3.6,10.1-3.6h19.231V74.446h8.39V34.668h14.97V27.193H327.436Z" transform="translate(-155.433 -0.471)" fill="#fff"/>
  </g>
</svg>